<svg xmlns="http://www.w3.org/2000/svg" width="1600" height="900" viewBox="0 0 1600 900">
<rect width="1600" height="900" fill="#FFFFFF"/><text x="70" y="85" font-family="Inter, Arial" font-size="54" font-weight="750" fill="#17324D">Sistema cromático Tramitatrón</text><rect x="70" y="145" width="330" height="230" rx="26" fill="#17324D"/><text x="94" y="310" font-family="Inter, Arial" font-size="29" font-weight="700" fill="#FFFFFF">Azul confianza</text><text x="94" y="348" font-family="Inter, Arial" font-size="24" fill="#FFFFFF">#17324D</text><rect x="450" y="145" width="330" height="230" rx="26" fill="#246BFD"/><text x="474" y="310" font-family="Inter, Arial" font-size="29" font-weight="700" fill="#FFFFFF">Azul acción</text><text x="474" y="348" font-family="Inter, Arial" font-size="24" fill="#FFFFFF">#246BFD</text><rect x="830" y="145" width="330" height="230" rx="26" fill="#F2C14E"/><text x="854" y="310" font-family="Inter, Arial" font-size="29" font-weight="700" fill="#17324D">Amarillo guía</text><text x="854" y="348" font-family="Inter, Arial" font-size="24" fill="#17324D">#F2C14E</text><rect x="1210" y="145" width="330" height="230" rx="26" fill="#0F6B78"/><text x="1234" y="310" font-family="Inter, Arial" font-size="29" font-weight="700" fill="#FFFFFF">Turquesa apoyo</text><text x="1234" y="348" font-family="Inter, Arial" font-size="24" fill="#FFFFFF">#0F6B78</text><rect x="70" y="475" width="330" height="230" rx="26" fill="#1F6F43"/><text x="94" y="640" font-family="Inter, Arial" font-size="29" font-weight="700" fill="#FFFFFF">Verde resuelto</text><text x="94" y="678" font-family="Inter, Arial" font-size="24" fill="#FFFFFF">#1F6F43</text><rect x="450" y="475" width="330" height="230" rx="26" fill="#C43D3D"/><text x="474" y="640" font-family="Inter, Arial" font-size="29" font-weight="700" fill="#FFFFFF">Rojo incidencia</text><text x="474" y="678" font-family="Inter, Arial" font-size="24" fill="#FFFFFF">#C43D3D</text><rect x="830" y="475" width="330" height="230" rx="26" fill="#F7F8FA"/><text x="854" y="640" font-family="Inter, Arial" font-size="29" font-weight="700" fill="#121820">Superficie</text><text x="854" y="678" font-family="Inter, Arial" font-size="24" fill="#121820">#F7F8FA</text><rect x="1210" y="475" width="330" height="230" rx="26" fill="#121820"/><text x="1234" y="640" font-family="Inter, Arial" font-size="29" font-weight="700" fill="#FFFFFF">Texto</text><text x="1234" y="678" font-family="Inter, Arial" font-size="24" fill="#FFFFFF">#121820</text><text x="70" y="850" font-family="Inter, Arial" font-size="24" fill="#596775">El amarillo se usa como señal, nunca como color de texto sobre blanco.</text></svg>